<?xml version="1.0" encoding="UTF-8"?>
<svg version="1.1" xmlns="http://www.w3.org/2000/svg" width="546" height="84">
<path d="M0 0 C3.80271538 1.68096456 6.05570627 4.24822311 7.98828125 7.87890625 C9.36889821 11.95015739 9.30175867 15.06386496 7.73828125 19.12890625 C6.24538609 21.47488436 4.73502372 23.71627271 2.98828125 25.87890625 C3.58640625 26.12640625 4.18453125 26.37390625 4.80078125 26.62890625 C7.45635479 28.14637685 8.50288876 29.19105317 9.98828125 31.87890625 C11.17232488 37.4348033 11.43754669 41.58849291 8.98828125 46.87890625 C3.37600784 52.46601251 -1.67568514 54.00224439 -9.49609375 54.01171875 C-10.51316406 54.01300781 -11.53023438 54.01429687 -12.578125 54.015625 C-13.62871094 54.01175781 -14.67929687 54.00789063 -15.76171875 54.00390625 C-16.82777344 54.00777344 -17.89382813 54.01164062 -18.9921875 54.015625 C-20.00410156 54.01433594 -21.01601563 54.01304688 -22.05859375 54.01171875 C-22.98510742 54.01059082 -23.91162109 54.00946289 -24.86621094 54.00830078 C-27.01171875 53.87890625 -27.01171875 53.87890625 -28.01171875 52.87890625 C-28.1051879 51.22152182 -28.12916852 49.56015981 -28.12524414 47.90014648 C-28.12516861 46.83912216 -28.12509308 45.77809784 -28.12501526 44.68492126 C-28.11985397 43.53077225 -28.11469269 42.37662323 -28.109375 41.1875 C-28.10796005 40.01252457 -28.1065451 38.83754913 -28.10508728 37.62696838 C-28.09946867 33.85675561 -28.08691301 30.08660121 -28.07421875 26.31640625 C-28.06920615 23.76757898 -28.06464283 21.21875078 -28.06054688 18.66992188 C-28.04949319 12.40622992 -28.03273696 6.14257226 -28.01171875 -0.12109375 C-21.33018021 -3.46186302 -7.13908181 -1.76319292 0 0 Z M-18.01171875 6.87890625 C-18.01171875 11.49890625 -18.01171875 16.11890625 -18.01171875 20.87890625 C-15.94921875 20.94078125 -13.88671875 21.00265625 -11.76171875 21.06640625 C-10.6015625 21.10121094 -9.44140625 21.13601562 -8.24609375 21.171875 C-4.76025384 20.85612863 -3.47493017 20.29508738 -1.01171875 17.87890625 C0.07396628 16.03622757 0.07396628 16.03622757 -0.01171875 13.87890625 C-1.71304004 10.11809077 -3.17862435 8.3454815 -7.01171875 6.87890625 C-9.83257603 6.63817431 -9.83257603 6.63817431 -12.76171875 6.75390625 C-15.36046875 6.81578125 -15.36046875 6.81578125 -18.01171875 6.87890625 Z M-18.01171875 28.87890625 C-18.01171875 34.48890625 -18.01171875 40.09890625 -18.01171875 45.87890625 C-8.53459316 46.45391877 -8.53459316 46.45391877 -0.01171875 42.87890625 C1.41984024 41.66300641 1.41984024 41.66300641 1.30078125 38.06640625 C1.25160235 35.01731446 1.10844776 34.05915601 -0.63671875 31.44140625 C-5.83693194 28.02021336 -12.01173602 28.78799742 -18.01171875 28.87890625 Z " fill="#3B3B3B" transform="translate(392.01171875,24.12109375)"/>
<path d="M0 0 C1.2691626 0.01426025 1.2691626 0.01426025 2.56396484 0.02880859 C3.42554199 0.03702637 4.28711914 0.04524414 5.17480469 0.05371094 C15.64910021 0.23691754 24.58207319 0.89046441 32.62646484 8.27880859 C39.18037893 16.2400895 40.54378591 23.06261649 39.62646484 33.27880859 C37.07078884 42.8791459 32.56378294 48.00573376 24.16162109 53.04443359 C19.82799918 55.15448679 15.69509217 55.40608909 10.92333984 55.41162109 C9.86115234 55.41291016 8.79896484 55.41419922 7.70458984 55.41552734 C6.60630859 55.41166016 5.50802734 55.40779297 4.37646484 55.40380859 C3.26271484 55.40767578 2.14896484 55.41154297 1.00146484 55.41552734 C-0.05556641 55.41423828 -1.11259766 55.41294922 -2.20166016 55.41162109 C-3.65427246 55.4099292 -3.65427246 55.4099292 -5.13623047 55.40820312 C-7.37353516 55.27880859 -7.37353516 55.27880859 -8.37353516 54.27880859 C-8.47736105 52.66300851 -8.51205758 51.04270235 -8.51879883 49.42358398 C-8.52517868 48.3890358 -8.53155853 47.35448761 -8.53813171 46.28858948 C-8.53924454 45.16258835 -8.54035736 44.03658722 -8.54150391 42.87646484 C-8.54649651 41.15441078 -8.54649651 41.15441078 -8.55158997 39.39756775 C-8.55666417 36.96386111 -8.55899814 34.53014747 -8.55883789 32.09643555 C-8.5610237 28.36088667 -8.57917261 24.62563324 -8.59814453 20.89013672 C-8.6010784 18.53141378 -8.60306324 16.17268942 -8.60400391 13.81396484 C-8.61118942 12.68998795 -8.61837494 11.56601105 -8.6257782 10.40797424 C-8.62270157 9.3702739 -8.61962494 8.33257355 -8.61645508 7.26342773 C-8.6178801 6.34711075 -8.61930511 5.43079376 -8.62077332 4.48670959 C-8.04296355 -0.67328172 -4.31421057 0.02361315 0 0 Z M0.62646484 9.27880859 C0.60181557 14.52986302 0.58362916 19.78088405 0.5715332 25.03198242 C0.56649266 26.8197488 0.5596603 28.60751104 0.55102539 30.39526367 C0.53894754 32.95932028 0.5332339 35.52332257 0.52880859 38.08740234 C0.52364731 38.89157089 0.51848602 39.69573944 0.51316833 40.52427673 C0.51297269 42.44282574 0.56444502 44.36126228 0.62646484 46.27880859 C1.8041705 47.67927018 1.8041705 47.67927018 5.12646484 47.46630859 C12.21437202 47.36468985 18.43352738 45.7722605 24.62646484 42.27880859 C24.62646484 41.61880859 24.62646484 40.95880859 24.62646484 40.27880859 C25.28646484 40.27880859 25.94646484 40.27880859 26.62646484 40.27880859 C30.03710753 33.39897143 31.65543282 27.84489561 29.62646484 20.27880859 C27.04500658 15.11589207 23.45447399 11.63090357 17.92333984 9.67724609 C14.57969446 9.09722598 11.25735275 9.17476649 7.87646484 9.21630859 C7.17908203 9.22082031 6.48169922 9.22533203 5.76318359 9.22998047 C4.05090682 9.24170839 2.33867451 9.25964207 0.62646484 9.27880859 Z " fill="#212121" transform="translate(136.37353515625,22.72119140625)"/>
<path d="M0 0 C2.62527189 -0.05382106 5.24944713 -0.09358313 7.875 -0.125 C8.62136719 -0.14175781 9.36773437 -0.15851562 10.13671875 -0.17578125 C12.09194461 -0.1933959 14.04742021 -0.10320189 16 0 C18.67785865 2.67785865 19.44387497 5.7370127 20.625 9.25 C21.14967951 10.7791139 21.67579846 12.30773443 22.203125 13.8359375 C22.48736328 14.66061523 22.77160156 15.48529297 23.06445312 16.33496094 C24.07215651 19.20554814 25.1171675 22.06042068 26.171875 24.9140625 C26.53716309 25.90374023 26.90245117 26.89341797 27.27880859 27.91308594 C28.00235188 29.86810311 28.72917438 31.82191017 29.45947266 33.77441406 C29.78995605 34.6712793 30.12043945 35.56814453 30.4609375 36.4921875 C30.75790527 37.28995605 31.05487305 38.08772461 31.36083984 38.90966797 C32 41 32 41 32 44 C45.53 43.67 59.06 43.34 73 43 C77.6974455 31.07125112 77.6974455 31.07125112 82 19 C63.85 18.67 45.7 18.34 27 18 C26.505 15.525 26.505 15.525 26 13 C27 12 27 12 29.47401428 11.87974548 C30.57321701 11.88196609 31.67241974 11.88418671 32.80493164 11.88647461 C34.66674828 11.88658791 34.66674828 11.88658791 36.56617737 11.88670349 C37.9308374 11.89181089 39.29549702 11.8970269 40.66015625 11.90234375 C42.04878183 11.904208 43.43740807 11.90563187 44.82603455 11.90663147 C48.48721115 11.91045613 52.1483483 11.92028597 55.80950928 11.93133545 C59.54292263 11.94155068 63.27634234 11.94612933 67.00976562 11.95117188 C74.33986177 11.96190829 81.66992536 11.97898409 89 12 C89.80858826 15.62628822 90.09744283 17.69577268 88.7421875 21.1875 C88.44844238 21.96303223 88.15469727 22.73856445 87.85205078 23.53759766 C87.52962402 24.35019043 87.20719727 25.1627832 86.875 26 C86.39329346 27.25562744 86.39329346 27.25562744 85.90185547 28.53662109 C85.2516938 30.22794849 84.59630257 31.91727541 83.93554688 33.60449219 C83.09195546 35.7645441 82.26722761 37.9302623 81.453125 40.1015625 C78.15880783 48.84119217 78.15880783 48.84119217 77 50 C75.50659806 50.09830562 74.00859623 50.12798451 72.51196289 50.12939453 C71.08026512 50.13412277 71.08026512 50.13412277 69.61964417 50.13894653 C68.58113815 50.1369223 67.54263214 50.13489807 66.47265625 50.1328125 C64.88377846 50.13424759 64.88377846 50.13424759 63.26280212 50.13571167 C61.01740459 50.1363937 58.7720051 50.13453784 56.52661133 50.13037109 C53.080847 50.12502845 49.63521334 50.13031262 46.18945312 50.13671875 C44.01302054 50.13605787 41.83658805 50.1347765 39.66015625 50.1328125 C38.62367447 50.13483673 37.58719269 50.13686096 36.51930237 50.13894653 C35.56168503 50.13579437 34.60406769 50.13264221 33.61743164 50.12939453 C32.77217422 50.12859894 31.92691681 50.12780334 31.05604553 50.12698364 C29 50 29 50 27 49 C26.18544018 47.03609907 25.46690898 45.03211183 24.79296875 43.015625 C24.37080078 41.76910156 23.94863281 40.52257813 23.51367188 39.23828125 C23.07117617 37.90900003 22.62912067 36.57957219 22.1875 35.25 C21.33065295 32.69140884 20.46940013 30.13433228 19.60546875 27.578125 C19.39356903 26.94966675 19.18166931 26.3212085 18.96334839 25.67370605 C16.82243659 19.37739488 14.44268859 13.1849163 12 7 C10.7632251 6.89933228 10.7632251 6.89933228 9.50146484 6.79663086 C1.25 6.125 1.25 6.125 -1 5 C-0.67 3.35 -0.34 1.7 0 0 Z " fill="#515151" transform="translate(6,10)"/>
<path d="M0 0 C2.64 0 5.28 0 8 0 C9.17942085 3.53826255 9.11289189 6.34148726 9.09765625 10.07421875 C9.0962413 10.7580513 9.09482635 11.44188385 9.09336853 12.1464386 C9.08777876 14.32683722 9.07522822 16.50713251 9.0625 18.6875 C9.05748367 20.16731622 9.052921 21.64713406 9.04882812 23.12695312 C9.03781271 26.75133557 9.02055512 30.3756577 9 34 C9.82242187 33.0615625 10.64484375 32.123125 11.4921875 31.15625 C20.33205441 21.46601261 20.33205441 21.46601261 25.08984375 20.13671875 C27.52139881 20.18207057 29.65194416 20.37985884 32 21 C31.44841898 24.70694893 30.11773346 26.10342371 27.25 28.4375 C23.98743727 31.16021422 20.95687786 33.95071971 18 37 C19.49466796 40.54084442 21.53548356 42.6848357 24.3125 45.3125 C28.07544556 48.97833729 31.11200251 52.62142316 34 57 C31.87862104 59.12137896 28.818598 58.87443248 25.98046875 58.88671875 C18.63180517 56.7004191 13.07321194 48.10981791 9 42 C8.93941406 43.07121094 8.87882812 44.14242187 8.81640625 45.24609375 C8.73201463 46.64324391 8.64736594 48.04037857 8.5625 49.4375 C8.52318359 50.14455078 8.48386719 50.85160156 8.44335938 51.58007812 C8.11328125 56.88671875 8.11328125 56.88671875 7 58 C4 58.125 4 58.125 1 58 C0 57 0 57 -0.12025452 54.71580505 C-0.11803391 53.70542679 -0.11581329 52.69504852 -0.11352539 51.65405273 C-0.11344986 50.5129454 -0.11337433 49.37183807 -0.11329651 48.19615173 C-0.10813522 46.9545076 -0.10297394 45.71286346 -0.09765625 44.43359375 C-0.0962413 43.16983414 -0.09482635 41.90607452 -0.09336853 40.60401917 C-0.08870582 37.23875111 -0.0797148 33.8735501 -0.06866455 30.50830078 C-0.05844846 27.0765033 -0.05387049 23.64469891 -0.04882812 20.21289062 C-0.0377738 13.47524176 -0.0210171 6.73762475 0 0 Z " fill="#323232" transform="translate(304,20)"/>
<path d="M0 0 C3.56954444 2.46468544 6.11228551 4.83123371 7.22216797 9.12011719 C7.64676761 11.95798682 7.7544864 14.6466248 7.7578125 17.515625 C7.75974609 19.10890625 7.75974609 19.10890625 7.76171875 20.734375 C7.75785156 21.83265625 7.75398438 22.9309375 7.75 24.0625 C7.75580078 25.733125 7.75580078 25.733125 7.76171875 27.4375 C7.76042969 28.49453125 7.75914062 29.5515625 7.7578125 30.640625 C7.75668457 31.6090332 7.75555664 32.57744141 7.75439453 33.57519531 C7.625 35.8125 7.625 35.8125 6.625 36.8125 C3.6875 37 3.6875 37 0.625 36.8125 C-0.035 36.1525 -0.695 35.4925 -1.375 34.8125 C-2.365 35.3075 -3.355 35.8025 -4.375 36.3125 C-9.111535 38.30833834 -13.46550943 38.87360832 -18.3671875 37.0859375 C-21.14502496 35.66820303 -23.10854108 34.20108593 -24.875 31.625 C-25.61029565 27.48896196 -25.60728242 23.85409293 -24.375 19.8125 C-20.17915782 14.88238544 -15.70123083 13.54613013 -9.375 12.8125 C-6.68128679 12.6829516 -4.07439773 12.71434008 -1.375 12.8125 C-2.14474753 10.1327093 -2.14474753 10.1327093 -4.375 7.8125 C-9.294516 6.95945261 -13.19074194 7.02299462 -17.375 9.8125 C-18.365 9.8125 -19.355 9.8125 -20.375 9.8125 C-20.375 9.1525 -20.375 8.4925 -20.375 7.8125 C-21.365 7.4825 -22.355 7.1525 -23.375 6.8125 C-23.12109375 4.953125 -23.12109375 4.953125 -22.375 2.8125 C-15.81359733 -2.0300842 -7.51713001 -2.64491612 0 0 Z M-15.375 21.8125 C-17.68171915 24.52799154 -17.68171915 24.52799154 -17 27 C-16.79375 27.598125 -16.5875 28.19625 -16.375 28.8125 C-12.57404203 30.18084487 -10.07408466 30.94440277 -6.0625 30.1875 C-3.34153159 29.0406409 -3.34153159 29.0406409 -2 27 C-1.2891169 24.51190916 -1.23192603 22.38783152 -1.375 19.8125 C-6.44779555 19.60544712 -10.59882322 20.03314002 -15.375 21.8125 Z " fill="#414141" transform="translate(433.375,41.1875)"/>
<path d="M0 0 C3.19551795 2.28251282 5.19394976 4.233371 6.625 7.875 C7.28617293 12.63995306 7.36736359 17.38194683 7.4375 22.1875 C7.47552734 23.48751953 7.51355469 24.78753906 7.55273438 26.12695312 C7.72075653 32.96581234 7.72075653 32.96581234 7.625 35.875 C6.625 36.875 6.625 36.875 3.1875 37.0625 C-0.375 36.875 -0.375 36.875 -2.375 34.875 C-3.2 35.37 -4.025 35.865 -4.875 36.375 C-10.22846129 38.66934055 -14.24750511 38.67782826 -19.6875 36.625 C-23.97323009 33.83429204 -23.97323009 33.83429204 -25.375 30.875 C-26.03019738 27.06029528 -26.22902948 23.53737014 -24.42578125 20.02734375 C-21.05874617 15.70436811 -17.7153333 14.39507407 -12.5625 13.25 C-8.7888363 12.80603956 -5.17341777 12.80951004 -1.375 12.875 C-1.705 11.225 -2.035 9.575 -2.375 7.875 C-4.31219378 7.82093878 -6.24981921 7.78217975 -8.1875 7.75 C-9.26644531 7.72679687 -10.34539062 7.70359375 -11.45703125 7.6796875 C-14.56902868 7.64476283 -14.56902868 7.64476283 -17.375 9.875 C-18.365 9.875 -19.355 9.875 -20.375 9.875 C-20.375 9.215 -20.375 8.555 -20.375 7.875 C-21.365 7.545 -22.355 7.215 -23.375 6.875 C-23.1875 5.0625 -23.1875 5.0625 -22.375 2.875 C-15.81910458 -1.90903179 -7.61628532 -2.53876177 0 0 Z M-16.375 22.875 C-16.54166667 25.875 -16.54166667 25.875 -16.375 28.875 C-14.71733202 30.53266798 -12.77153595 30.08549503 -10.5 30.125 C-9.61570312 30.15078125 -8.73140625 30.1765625 -7.8203125 30.203125 C-5.34591673 30.06732791 -5.34591673 30.06732791 -3.59765625 28.58984375 C-1.68606114 25.90872473 -1.67818251 23.0887346 -1.375 19.875 C-9.42277363 19.47818061 -9.42277363 19.47818061 -16.375 22.875 Z " fill="#393939" transform="translate(506.375,41.125)"/>
<path d="M0 0 C4.3978016 3.05934024 8.45682941 7.16365882 10.875 12 C11.36387732 17.80241278 11.73045438 23.15748286 9.25 28.5 C3.98853259 34.03838675 -0.59918289 37.99165464 -8.5 38.3125 C-13.0054643 38.22948474 -16.13629255 37.03678678 -20.125 35 C-20.125 34.34 -20.125 33.68 -20.125 33 C-20.723125 32.773125 -21.32125 32.54625 -21.9375 32.3125 C-24.8254596 30.57972424 -25.65598977 29.03266257 -27.125 26 C-27.99324972 19.47365629 -28.65567971 12.18991426 -24.75 6.5625 C-22.125 4 -22.125 4 -20.125 4 C-20.125 3.34 -20.125 2.68 -20.125 2 C-13.19550897 -1.0237779 -7.35599851 -2.35391952 0 0 Z M-15.125 9 C-17.55966791 11.62687854 -18.9983549 13.58952127 -19.32421875 17.21875 C-19.09057641 21.22404722 -18.35210431 23.64102867 -16.1875 27.0625 C-12.433633 29.43739545 -9.89637243 29.7879659 -5.5078125 29.5390625 C-2.46866286 28.85151717 -0.64254255 27.51836718 1.10546875 24.91796875 C2.82296658 20.63730157 2.69846144 16.10229327 1.02734375 11.8359375 C-0.75512949 8.99606488 -3.07406315 8.22037474 -6.125 7 C-10.05393511 7 -11.75525406 7.14663973 -15.125 9 Z " fill="#3A3A3A" transform="translate(209.125,41)"/>
<path d="M0 0 C3.92194374 1.91960115 5.80199376 3.84049824 7.46557617 8.03198242 C8.73614418 13.15373997 8.38090655 18.47789909 8.2890625 23.71875 C8.28390625 24.91886719 8.27875 26.11898437 8.2734375 27.35546875 C8.19340179 36.18941071 8.19340179 36.18941071 7.0390625 37.34375 C3.5390625 37.46875 3.5390625 37.46875 0.0390625 37.34375 C-1.69167093 35.61301657 -1.17230413 33.24286313 -1.2421875 30.8828125 C-1.27957031 29.77164063 -1.31695312 28.66046875 -1.35546875 27.515625 C-1.40767578 25.75992188 -1.40767578 25.75992188 -1.4609375 23.96875 C-1.52977268 21.66914503 -1.60251057 19.36965262 -1.6796875 17.0703125 C-1.70998047 16.04502441 -1.74027344 15.01973633 -1.77148438 13.96337891 C-1.86052735 11.23335811 -1.86052735 11.23335811 -2.9609375 8.34375 C-8.88045727 7.89454239 -8.88045727 7.89454239 -13.9609375 10.34375 C-15.98587921 15.96776694 -16.33721639 21.27784224 -16.5234375 27.21875 C-16.5830925 28.92462924 -16.64667481 30.63037727 -16.71484375 32.3359375 C-16.73877197 33.08214355 -16.7627002 33.82834961 -16.78735352 34.59716797 C-16.9609375 36.34375 -16.9609375 36.34375 -17.9609375 37.34375 C-20.29391183 37.38467937 -22.62798975 37.38616723 -24.9609375 37.34375 C-24.9855876 32.23511104 -25.00377357 27.12650641 -25.01586914 22.01782227 C-25.02090954 20.27855832 -25.0277418 18.53929864 -25.03637695 16.80004883 C-25.04845542 14.30549063 -25.05416858 11.81098827 -25.05859375 9.31640625 C-25.06375504 8.53411148 -25.06891632 7.75181671 -25.07423401 6.94581604 C-25.07442976 5.07807886 -25.02293444 3.21045796 -24.9609375 1.34375 C-23.9609375 0.34375 -23.9609375 0.34375 -21.0234375 0.15625 C-17.9609375 0.34375 -17.9609375 0.34375 -15.9609375 2.34375 C-15.1359375 1.84875 -14.3109375 1.35375 -13.4609375 0.84375 C-8.77766655 -1.16336612 -4.80723286 -1.60879506 0 0 Z " fill="#393939" transform="translate(269.9609375,40.65625)"/>
<path d="M0 0 C1.25554687 -0.00128906 2.51109375 -0.00257812 3.8046875 -0.00390625 C4.46178711 -0.00181152 5.11888672 0.0002832 5.79589844 0.00244141 C7.80411335 0.00779016 9.81210459 0.00249559 11.8203125 -0.00390625 C13.07585937 -0.00261719 14.33140625 -0.00132813 15.625 0 C16.78644531 0.00112793 17.94789063 0.00225586 19.14453125 0.00341797 C21.8125 0.1328125 21.8125 0.1328125 22.8125 1.1328125 C23.29958621 5.04082979 23.04932475 6.7595455 20.9140625 10.125 C20.09679687 11.07632813 19.27953125 12.02765625 18.4375 13.0078125 C17.62539063 13.97460938 16.81328125 14.94140625 15.9765625 15.9375 C15.26242187 16.66195312 14.54828125 17.38640625 13.8125 18.1328125 C13.1525 18.1328125 12.4925 18.1328125 11.8125 18.1328125 C11.4721875 18.9371875 11.4721875 18.9371875 11.125 19.7578125 C9.38209873 22.91163384 7.14362696 25.38366439 4.8125 28.1328125 C6.74416016 28.22369141 6.74416016 28.22369141 8.71484375 28.31640625 C10.39324159 28.40079497 12.07162636 28.4854438 13.75 28.5703125 C14.60013672 28.60962891 15.45027344 28.64894531 16.32617188 28.68945312 C17.13505859 28.73134766 17.94394531 28.77324219 18.77734375 28.81640625 C19.90064087 28.87139282 19.90064087 28.87139282 21.04663086 28.92749023 C22.8125 29.1328125 22.8125 29.1328125 23.8125 30.1328125 C23.9375 33.1328125 23.9375 33.1328125 23.8125 36.1328125 C21.95963367 37.98567883 18.91849551 37.2632908 16.44140625 37.265625 C15.14525391 37.26691406 13.84910156 37.26820312 12.51367188 37.26953125 C11.8348999 37.26743652 11.15612793 37.2653418 10.45678711 37.26318359 C8.38713211 37.2578438 6.317695 37.26312443 4.24804688 37.26953125 C2.95060547 37.26824219 1.65316406 37.26695313 0.31640625 37.265625 C-0.88169678 37.26449707 -2.0797998 37.26336914 -3.31420898 37.26220703 C-6.1875 37.1328125 -6.1875 37.1328125 -8.1875 36.1328125 C-8.510027 32.58501549 -8.59737396 30.72485267 -6.53515625 27.74609375 C-5.78105469 26.98683594 -5.02695312 26.22757813 -4.25 25.4453125 C0.75387213 20.22698871 5.28189095 14.7666195 9.8125 9.1328125 C8.66910156 9.07222656 7.52570313 9.01164062 6.34765625 8.94921875 C4.85675695 8.86482822 3.36587225 8.78017948 1.875 8.6953125 C1.12025391 8.65599609 0.36550781 8.61667969 -0.41210938 8.57617188 C-6.07421875 8.24609375 -6.07421875 8.24609375 -7.1875 7.1328125 C-7.3125 4.1328125 -7.3125 4.1328125 -7.1875 1.1328125 C-5.35715945 -0.69752805 -2.45538008 0.00238453 0 0 Z " fill="#313131" transform="translate(453.1875,40.8671875)"/>
<path d="M0 0 C1 1 1 1 1.09765625 2.84765625 C1.06510417 4.8984375 1.03255208 6.94921875 1 9 C0.30132813 9.10957031 -0.39734375 9.21914063 -1.1171875 9.33203125 C-2.02726563 9.49058594 -2.93734375 9.64914063 -3.875 9.8125 C-4.77992188 9.96332031 -5.68484375 10.11414062 -6.6171875 10.26953125 C-9.34412478 10.83051301 -9.34412478 10.83051301 -11 14 C-11.3508029 16.49908196 -11.3508029 16.49908196 -11.37890625 19.2890625 C-11.41306641 20.31257813 -11.44722656 21.33609375 -11.48242188 22.390625 C-11.50884766 23.45796875 -11.53527344 24.5253125 -11.5625 25.625 C-11.62216036 27.74230826 -11.6857436 29.8595109 -11.75390625 31.9765625 C-11.77783447 32.91580566 -11.8017627 33.85504883 -11.82641602 34.82275391 C-12 37 -12 37 -13 38 C-16.5 38.125 -16.5 38.125 -20 38 C-21.76072584 36.23927416 -21.12834784 33.9210371 -21.13894653 31.5760498 C-21.1369223 30.81876587 -21.13489807 30.06148193 -21.1328125 29.28125 C-21.13376923 28.50817505 -21.13472595 27.7351001 -21.13571167 26.93859863 C-21.13639341 25.30102456 -21.13453957 23.66344781 -21.13037109 22.02587891 C-21.12502271 19.51068079 -21.13031626 16.99566127 -21.13671875 14.48046875 C-21.13605797 12.89322877 -21.1347768 11.3059889 -21.1328125 9.71875 C-21.13483673 8.96146606 -21.13686096 8.20418213 -21.13894653 7.4239502 C-21.11495132 2.11495132 -21.11495132 2.11495132 -20 1 C-13.47457627 0.76271186 -13.47457627 0.76271186 -11 2 C-10.2575 1.690625 -9.515 1.38125 -8.75 1.0625 C-5.63606152 -0.1406126 -3.31128864 -0.22576968 0 0 Z " fill="#2D2D2D" transform="translate(542,40)"/>
<path d="M0 0 C1.98 0 3.96 0 6 0 C6 18.81 6 37.62 6 57 C4.02 57 2.04 57 0 57 C0 38.19 0 19.38 0 0 Z " fill="#070707" transform="translate(305,21)"/>
<path d="M0 0 C3.5 0.125 3.5 0.125 4.5 1.125 C4.60091475 3.70689446 4.63971499 6.261465 4.6328125 8.84375 C4.63376923 9.61682495 4.63472595 10.3898999 4.63571167 11.18640137 C4.63639341 12.82397544 4.63453957 14.46155219 4.63037109 16.09912109 C4.62502271 18.61431921 4.63031626 21.12933873 4.63671875 23.64453125 C4.63605797 25.23177123 4.6347768 26.8190111 4.6328125 28.40625 C4.63483673 29.16353394 4.63686096 29.92081787 4.63894653 30.7010498 C4.61495132 36.01004868 4.61495132 36.01004868 3.5 37.125 C0 37.25 0 37.25 -3.5 37.125 C-5.26072584 35.36427416 -4.62834784 33.0460371 -4.63894653 30.7010498 C-4.6369223 29.94376587 -4.63489807 29.18648193 -4.6328125 28.40625 C-4.63376923 27.63317505 -4.63472595 26.8601001 -4.63571167 26.06359863 C-4.63639341 24.42602456 -4.63453957 22.78844781 -4.63037109 21.15087891 C-4.62502271 18.63568079 -4.63031626 16.12066127 -4.63671875 13.60546875 C-4.63605797 12.01822877 -4.6347768 10.4309889 -4.6328125 8.84375 C-4.63483673 8.08646606 -4.63686096 7.32918213 -4.63894653 6.5489502 C-4.61009123 0.16464612 -4.61009123 0.16464612 0 0 Z " fill="#464646" transform="translate(231.5,40.875)"/>
<path d="M0 0 C3.5 0.125 3.5 0.125 4.5 1.125 C4.60091475 3.70689446 4.63971499 6.261465 4.6328125 8.84375 C4.63376923 9.61682495 4.63472595 10.3898999 4.63571167 11.18640137 C4.63639341 12.82397544 4.63453957 14.46155219 4.63037109 16.09912109 C4.62502271 18.61431921 4.63031626 21.12933873 4.63671875 23.64453125 C4.63605797 25.23177123 4.6347768 26.8190111 4.6328125 28.40625 C4.63483673 29.16353394 4.63686096 29.92081787 4.63894653 30.7010498 C4.61495132 36.01004868 4.61495132 36.01004868 3.5 37.125 C1.16702567 37.16592937 -1.16705225 37.16741723 -3.5 37.125 C-4.49069216 32.99891966 -4.6290379 29.12787844 -4.6328125 24.890625 C-4.63376923 24.21199402 -4.63472595 23.53336304 -4.63571167 22.83416748 C-4.63638898 21.40881253 -4.63456614 19.98345441 -4.63037109 18.55810547 C-4.62498301 16.36809472 -4.63034818 14.17828595 -4.63671875 11.98828125 C-4.63605854 10.60156205 -4.63477857 9.21484297 -4.6328125 7.828125 C-4.63168457 6.56645508 -4.63055664 5.30478516 -4.62939453 4.00488281 C-4.44043479 -0.20071927 -4.3180558 0.15421628 0 0 Z " fill="#363636" transform="translate(290.5,40.875)"/>
<path d="M0 0 C1.2686792 0.01389771 1.2686792 0.01389771 2.56298828 0.02807617 C3.85100342 0.03713989 3.85100342 0.03713989 5.16503906 0.04638672 C22.07596717 0.30947395 22.07596717 0.30947395 28.62548828 5.27807617 C27.96548828 5.60807617 27.30548828 5.93807617 26.62548828 6.27807617 C25.70638672 5.81788086 24.78728516 5.35768555 23.84033203 4.88354492 C18.25890515 2.34100745 12.21396011 2.70653963 6.18798828 2.59057617 C2.04236328 2.48745117 -2.10326172 2.38432617 -6.37451172 2.27807617 C-6.37451172 19.10807617 -6.37451172 35.93807617 -6.37451172 53.27807617 C-2.20826172 53.13370117 1.95798828 52.98932617 6.25048828 52.84057617 C8.20462646 52.77592163 8.20462646 52.77592163 10.19824219 52.70996094 C11.75937744 52.65279907 11.75937744 52.65279907 13.35205078 52.59448242 C14.93880615 52.53949585 14.93880615 52.53949585 16.55761719 52.48339844 C19.63476102 52.27745558 22.59416918 51.83626796 25.62548828 51.27807617 C21.05726309 55.16952726 16.77352425 55.40410528 10.92236328 55.41088867 C9.86017578 55.41217773 8.79798828 55.4134668 7.70361328 55.41479492 C6.60533203 55.41092773 5.50705078 55.40706055 4.37548828 55.40307617 C3.26173828 55.40694336 2.14798828 55.41081055 1.00048828 55.41479492 C-0.05654297 55.41350586 -1.11357422 55.4122168 -2.20263672 55.41088867 C-3.65524902 55.40919678 -3.65524902 55.40919678 -5.13720703 55.4074707 C-7.37451172 55.27807617 -7.37451172 55.27807617 -8.37451172 54.27807617 C-8.47833761 52.66227609 -8.51303415 51.04196993 -8.51977539 49.42285156 C-8.52615524 48.38830338 -8.5325351 47.35375519 -8.53910828 46.28785706 C-8.5402211 45.16185593 -8.54133392 44.0358548 -8.54248047 42.87573242 C-8.54747307 41.15367836 -8.54747307 41.15367836 -8.55256653 39.39683533 C-8.55764073 36.96312868 -8.5599747 34.52941505 -8.55981445 32.09570312 C-8.56200026 28.36015425 -8.58014918 24.62490082 -8.59912109 20.8894043 C-8.60205497 18.53068135 -8.6040398 16.171957 -8.60498047 13.81323242 C-8.61216599 12.68925552 -8.6193515 11.56527863 -8.62675476 10.40724182 C-8.62367813 9.36954147 -8.6206015 8.33184113 -8.61743164 7.26269531 C-8.61885666 6.34637833 -8.62028168 5.43006134 -8.62174988 4.48597717 C-8.0439172 -0.6742188 -4.31439525 0.02229323 0 0 Z " fill="#A6A6A6" transform="translate(136.37451171875,22.721923828125)"/>
<path d="M0 0 C3.48825925 0.92832706 4.94573896 2.59022598 6.9375 5.515625 C7.7253128 9.9273767 7.46725133 11.73755274 4.9375 15.453125 C0.80436529 18.29465511 -1.11154141 18.14431815 -6.0625 17.515625 C-8.5 16.515625 -8.5 16.515625 -10.0625 14.515625 C-11.80232737 8.27271501 -11.80232737 8.27271501 -10.28125 4.66015625 C-7.45646743 0.64247563 -4.65618214 -0.38801518 0 0 Z M-4.0625 6.515625 C-4.3925 7.835625 -4.7225 9.155625 -5.0625 10.515625 C-3.0825 11.505625 -3.0825 11.505625 -1.0625 12.515625 C-0.4025 11.855625 0.2575 11.195625 0.9375 10.515625 C0.6189823 8.40741703 0.6189823 8.40741703 -0.0625 6.515625 C-1.3825 6.515625 -2.7025 6.515625 -4.0625 6.515625 Z " fill="#545454" transform="translate(80.0625,62.484375)"/>
<path d="M0 0 C2.9375 2.0625 2.9375 2.0625 5 5 C5.65622237 9.08316143 5.37781677 11.22793965 3.5625 14.9375 C0.29952023 17.56380079 -1.77075324 17.67645366 -5.87109375 17.40625 C-8 17 -8 17 -10.5625 15.5625 C-12.70907738 11.73599249 -12.89487669 8.27813857 -12 4 C-8.57473068 -0.25563764 -5.29763755 -0.85140604 0 0 Z M-5 6 C-5.66 7.32 -6.32 8.64 -7 10 C-5.11683841 11.10836423 -5.11683841 11.10836423 -3 12 C-2.34 11.67 -1.68 11.34 -1 11 C-1 9.35 -1 7.7 -1 6 C-2.32 6 -3.64 6 -5 6 Z " fill="#505050" transform="translate(45,63)"/>
<path d="M0 0 C2.64 0 5.28 0 8 0 C9.17942085 3.53826255 9.11289189 6.34148726 9.09765625 10.07421875 C9.0962413 10.7580513 9.09482635 11.44188385 9.09336853 12.1464386 C9.08777876 14.32683722 9.07522822 16.50713251 9.0625 18.6875 C9.05748367 20.16731622 9.052921 21.64713406 9.04882812 23.12695312 C9.03781271 26.75133557 9.02055512 30.3756577 9 34 C9.82242187 33.0615625 10.64484375 32.123125 11.4921875 31.15625 C20.33205441 21.46601261 20.33205441 21.46601261 25.08984375 20.13671875 C27.52139881 20.18207057 29.65194416 20.37985884 32 21 C31.67 22.32 31.34 23.64 31 25 C30.34 24.67 29.68 24.34 29 24 C29.33 23.67 29.66 23.34 30 23 C27.69 22.67 25.38 22.34 23 22 C22.79503906 22.55558594 22.59007812 23.11117187 22.37890625 23.68359375 C20.83462072 26.27781845 18.92757988 27.76820654 16.60644531 29.65527344 C11.95144086 33.58029475 8.83538897 36.79920598 7.98828125 43.01171875 C7.65715006 47.691619 7.7453372 52.31812238 8 57 C7.67 57 7.34 57 7 57 C7 38.52 7 20.04 7 1 C5.02 1 3.04 1 1 1 C1 19.48 1 37.96 1 57 C0.67 57 0.34 57 0 57 C0 38.19 0 19.38 0 0 Z " fill="#9B9B9B" transform="translate(304,20)"/>
<path d="M0 0 C1 2 1 2 0 7 C9.24 7 18.48 7 28 7 C28 5.68 28 4.36 28 3 C21.4 2.67 14.8 2.34 8 2 C10 0 10 0 11.95532227 -0.15112305 C12.73447998 -0.10511963 13.5136377 -0.05911621 14.31640625 -0.01171875 C15.58581055 0.05885742 15.58581055 0.05885742 16.88085938 0.13085938 C17.76580078 0.19080078 18.65074219 0.25074219 19.5625 0.3125 C20.89571289 0.38500977 20.89571289 0.38500977 22.25585938 0.45898438 C28.8567497 0.8567497 28.8567497 0.8567497 30 2 C30.125 5 30.125 5 30 8 C28.14713367 9.85286633 25.10599551 9.1304783 22.62890625 9.1328125 C21.33275391 9.13410156 20.03660156 9.13539062 18.70117188 9.13671875 C18.0223999 9.13462402 17.34362793 9.1325293 16.64428711 9.13037109 C14.57463211 9.1250313 12.505195 9.13031193 10.43554688 9.13671875 C9.13810547 9.13542969 7.84066406 9.13414063 6.50390625 9.1328125 C5.30580322 9.13168457 4.1077002 9.13055664 2.87329102 9.12939453 C0 9 0 9 -2 8 C-2.125 5.125 -2.125 5.125 -2 2 C-1.34 1.34 -0.68 0.68 0 0 Z " fill="#9B9B9B" transform="translate(447,69)"/>
<path d="M0 0 C3.5625 0.375 3.5625 0.375 5.5625 2.0625 C6.83346428 5.0016049 6.66193143 6.39082898 5.5625 9.375 C2.32996204 11.53002531 1.31099077 11.84356135 -2.4375 11.375 C-4.25 10.25 -4.25 10.25 -5.4375 8.375 C-5.75 5.3125 -5.75 5.3125 -5.4375 2.375 C-3.4375 0.375 -3.4375 0.375 0 0 Z " fill="#4F4F4F" transform="translate(290.4375,23.625)"/>
<path d="M0 0 C3.625 0.3125 3.625 0.3125 5.625 2 C6.89596428 4.9391049 6.72443143 6.32832898 5.625 9.3125 C2.39246204 11.46752531 1.37349077 11.78106135 -2.375 11.3125 C-4.25 10.25 -4.25 10.25 -5.375 8.3125 C-4.83258355 0.44746144 -4.83258355 0.44746144 0 0 Z " fill="#505050" transform="translate(231.375,23.6875)"/>
<path d="M0 0 C3.33388318 0.16951948 4.94441987 0.43192871 7.6875 2.1875 C6.0375 3.5075 4.3875 4.8275 2.6875 6.1875 C2.6875 4.8675 2.6875 3.5475 2.6875 2.1875 C0.7075 2.1875 -1.2725 2.1875 -3.3125 2.1875 C-3.3125 13.4075 -3.3125 24.6275 -3.3125 36.1875 C-3.6425 36.1875 -3.9725 36.1875 -4.3125 36.1875 C-4.33715098 31.22127651 -4.35533649 26.25508834 -4.36743164 21.28881836 C-4.3724719 19.59805684 -4.37930405 17.90729971 -4.38793945 16.21655273 C-4.40001857 13.79149293 -4.40573123 11.36649056 -4.41015625 8.94140625 C-4.41531754 8.18098526 -4.42047882 7.42056427 -4.42579651 6.63710022 C-4.42599238 4.8201743 -4.37447277 3.00336873 -4.3125 1.1875 C-3.3125 0.1875 -3.3125 0.1875 0 0 Z " fill="#E9E9E9" transform="translate(525.3125,40.8125)"/>
<path d="M0 0 C2.74489644 2.74489644 2.32367585 4.44365057 2.44921875 8.28515625 C2.49240234 9.53748047 2.53558594 10.78980469 2.58007812 12.08007812 C2.61552734 13.39427734 2.65097656 14.70847656 2.6875 16.0625 C2.73455078 17.38056641 2.78160156 18.69863281 2.83007812 20.05664062 C3.05571563 27.23635207 3.05571563 27.23635207 3 30 C2 31 2 31 -1.5625 31.0625 C-2.696875 31.041875 -3.83125 31.02125 -5 31 C-6.0625 29.125 -6.0625 29.125 -7 27 C-6.67 26.34 -6.34 25.68 -6 25 C-5.34 25 -4.68 25 -4 25 C-4 26.65 -4 28.3 -4 30 C-2.35 30 -0.7 30 1 30 C0.67 20.1 0.34 10.2 0 0 Z " fill="#C3C3C3" transform="translate(511,47)"/>
<path d="M0 0 C7.42857143 -0.28571429 7.42857143 -0.28571429 11 2 C9.35 3.32 7.7 4.64 6 6 C6 4.68 6 3.36 6 2 C4.02 2 2.04 2 0 2 C0 1.34 0 0.68 0 0 Z " fill="#A0A0A0" transform="translate(522,41)"/>
<path d="M0 0 C0.66 0.33 1.32 0.66 2 1 C1.01 2.98 0.02 4.96 -1 7 C-1.99 6.67 -2.98 6.34 -4 6 C-3.6875 4.125 -3.6875 4.125 -3 2 C-2.01 1.34 -1.02 0.68 0 0 Z " fill="#959595" transform="translate(414,42)"/>
<path d="M0 0 C-3.465 2.97 -3.465 2.97 -7 6 C-6.75 3.625 -6.75 3.625 -6 1 C-2.69333333 -1.34666667 -2.69333333 -1.34666667 0 0 Z " fill="#4C4C4C" transform="translate(192,45)"/>
</svg>
